<svg id="Layer_2" data-name="Layer 2" xmlns="http://www.w3.org/2000/svg" viewBox="0 0 612 792"><defs><style>.cls-1,.cls-2,.cls-5{fill:none;stroke:#000;stroke-miterlimit:10;}.cls-1{stroke-width:1.09px;}.cls-2{font-size:12.99px;stroke-width:0.5px;font-family:ArialicHollow, Arialic Hollow;}.cls-3{fill:#fff;}.cls-4{letter-spacing:-0.07em;}.cls-5{stroke-width:0.75px;}</style></defs><title>4-042</title><rect class="cls-1" x="34.62" y="24.26" width="542.77" height="255.13"/><line class="cls-1" x1="577.38" y1="279.38" x2="577.38" y2="435.81"/><polyline class="cls-1" points="42.58 428.35 42.58 287.51 179.43 287.51 214.52 322.6 545.31 322.6 545.31 301.45 508.38 301.45 508.38 287.51 568.76 287.51 568.76 407.52"/><polyline class="cls-1" points="45.07 279.38 45.07 207.39 52.03 207.39 52.03 181.02 42.58 181.02 42.58 153.65 61.99 153.65 61.99 144.19 42.58 144.19 42.58 127.77 65.97 127.77 65.97 119.31 42.58 119.31 42.58 98.41 61.49 98.41 61.49 91.94 42.58 91.94 42.58 72.53 63.48 72.53 63.48 63.08 44.57 63.08 44.57 33.22 182.91 33.22 219.74 70.04 545.31 70.04 545.31 46.65 511.86 46.65 511.86 33.22 566.6 33.22 566.6 156.3 549.18 156.3 567.35 174.46 567.35 228.29 534.25 228.29 534.25 236.75 568.76 236.75 568.76 255.5 540.23 255.5 540.23 265.12 568.76 265.12 568.76 279.38"/><rect class="cls-1" x="34.62" y="428.35" width="542.77" height="339.39"/><polyline class="cls-1" points="43.24 485.06 43.24 460.12 71.77 460.12 71.77 447.32 43.24 447.32 43.24 428.35"/><polyline class="cls-1" points="566.93 428.35 566.93 524.12 559.97 524.12 559.97 559.21 569.42 559.21 569.42 595.62 550.01 595.62 550.01 608.2 569.42 608.2 569.42 630.04 546.03 630.04 546.03 641.3 569.42 641.3 569.42 669.1 550.51 669.1 550.51 677.71 569.42 677.71 569.42 703.53 548.52 703.53 548.52 716.1 567.43 716.1 567.43 755.83 429.08 755.83 392.26 706.84 66.69 706.84 66.69 737.95 100.14 737.95 100.14 755.83 45.4 755.83 45.4 592.09 62.82 592.09 42.58 567.92 43.24 485.06 77.75 496.31"/><text class="cls-2" transform="translate(258 234.28)">PRINCÍPIOS</text><rect class="cls-3" x="460.76" y="225.33" width="112.5" height="53.5"/><text class="cls-2" transform="translate(505.38 245.28)">OPEN <tspan x="0" y="15.59">SOURCE</tspan></text><text class="cls-2" transform="translate(272.26 160.69)">COMUNIDADE</text><text class="cls-2" transform="translate(69.18 227.17)">FERRAMEN<tspan class="cls-4" x="72.88" y="0">T</tspan><tspan x="79.85" y="0">AS</tspan></text><text class="cls-2" transform="translate(460.76 108)">OPEN SOURCE <tspan x="0" y="15.59">DESIGN</tspan></text><polyline class="cls-5" points="52.03 192.67 219 192.67 181.67 255.5 371.67 255.5 385.67 216 245.67 172.67 257 124 471.67 140 432.33 208 477.67 225.33 517.01 225.33"/></svg>