<svg id="Layer_2" data-name="Layer 2" xmlns="http://www.w3.org/2000/svg" viewBox="0 0 612 792"><defs><style>.cls-1{fill:none;stroke:#000;stroke-miterlimit:10;}</style></defs><title>4-04</title><rect class="cls-1" x="33.33" y="22.5" width="545.33" height="256.33"/><line class="cls-1" x1="578.67" y1="278.83" x2="578.67" y2="436"/><polyline class="cls-1" points="41.33 428.5 41.33 287 178.83 287 214.08 322.25 546.44 322.25 546.44 301 509.33 301 509.33 287 570 287 570 407.58"/><polyline class="cls-1" points="43.83 278.83 43.83 206.5 50.83 206.5 50.83 180 41.33 180 41.33 152.5 60.83 152.5 60.83 143 41.33 143 41.33 126.5 64.83 126.5 64.83 118 41.33 118 41.33 97 60.33 97 60.33 90.5 41.33 90.5 41.33 71 62.33 71 62.33 61.5 43.33 61.5 43.33 31.5 182.33 31.5 219.33 68.5 546.44 68.5 546.44 45 512.83 45 512.83 31.5 567.83 31.5 567.83 155.17 550.33 155.17 568.58 173.42 568.58 227.5 535.33 227.5 535.33 236 570 236 570 254.83 541.33 254.83 541.33 264.5 570 264.5 570 278.83"/><rect class="cls-1" x="33.33" y="428.5" width="545.33" height="341"/><polyline class="cls-1" points="42 485.48 42 460.43 70.67 460.43 70.67 447.57 42 447.57 42 428.5"/><polyline class="cls-1" points="568.17 428.5 568.17 524.73 561.17 524.73 561.17 559.98 570.67 559.98 570.67 596.56 551.17 596.56 551.17 609.2 570.67 609.2 570.67 631.15 547.17 631.15 547.17 642.46 570.67 642.46 570.67 670.39 551.67 670.39 551.67 679.04 570.67 679.04 570.67 704.98 549.67 704.98 549.67 717.62 568.67 717.62 568.67 757.53 429.67 757.53 392.67 708.31 65.56 708.31 65.56 739.57 99.17 739.57 99.17 757.53 44.17 757.53 44.17 593.01 61.67 593.01 41.33 568.74 42 485.48 76.67 496.79"/><polyline class="cls-1" points="76.67 496.79 167.33 446 418 446 570 446"/></svg>